<svg width="434" height="434" viewBox="0 0 434 434" fill="none" xmlns="http://www.w3.org/2000/svg">
<path d="M216.667 0.800049C97.1973 0.800049 0.133331 97.868 0.133331 217.333C0.133331 336.803 97.2013 433.867 216.667 433.867C336.136 433.867 433.2 336.799 433.2 217.333C433.2 97.864 336.137 0.800049 216.667 0.800049ZM216.667 404C113.625 404 30 320.375 30 217.333C30 114.292 113.625 30.6667 216.667 30.6667C319.708 30.6667 403.333 114.292 403.333 217.333C403.333 320.375 319.708 404 216.667 404Z" fill="#EF6F6C"/>
<path d="M231.6 112.8H201.736V202.399H112.137V232.263H201.736V321.861H231.6V232.263H321.199V202.399H231.6V112.8Z" fill="#EF6F6C"/>
</svg>
