<svg width="460" height="623" viewBox="0 0 460 623" fill="none" xmlns="http://www.w3.org/2000/svg">
<g clip-path="url(#clip0_6_2)">
<path d="M108.053 0.223999H97.444L0.246704 97.4213V622.448H459.073V0.234665L108.053 0.223999ZM444.067 607.437H15.2667V108.037H108.064V15.24H444.077V607.44L444.067 607.437Z" fill="#2C4251"/>
<path d="M279.37 171V301.074C324.347 259.518 369.209 217.278 414.02 175.352L279.37 171ZM270.394 175.49C270.194 176.401 191.666 257.202 155.524 301.075H270.394V175.49ZM399.995 194.572L340.102 250.698L423 202.29L399.995 194.572ZM81.8834 206.779V301.074H142.756L170.667 268.241L113.301 206.783H81.8834V206.779ZM72.9076 214.916L37 247.189H72.9076V214.916ZM86.2323 310.053L214.15 442.09L268.15 310.053H86.2323ZM274.887 317.347C252.082 373.154 228.723 428.714 207.562 485.163L274.887 521.083V317.344V317.347Z" fill="#2C4251"/>
</g>
<defs>
<clipPath id="clip0_6_2">
<rect width="460" height="623" fill="white"/>
</clipPath>
</defs>
</svg>
